<svg width="467" height="524" viewBox="0 0 467 524" fill="none" xmlns="http://www.w3.org/2000/svg">
<path d="M254.836 2.76465C238.768 12.2826 214.308 35.1053 202.333 51.8896C181.558 81.0576 168.56 115.343 164.671 150.958C163.033 166.515 164.159 190.463 167.639 215.947L170.607 236.927L142.462 269.677C110.326 307.135 108.996 309.182 108.996 321.873C109.098 328.423 109.508 331.083 111.555 335.177C114.727 341.727 120.868 347.868 127.418 351.04C132.433 353.497 133.149 353.599 159.349 353.906L186.061 354.213L186.675 358C186.982 360.047 188.005 367.313 188.824 374.068C189.745 380.823 190.973 387.68 191.587 389.215C193.123 393.206 197.319 395.048 204.687 395.048H210.93L210.623 417.257L210.316 439.568L207.348 444.992C203.766 451.337 199.468 455.431 192.304 459.013C187.596 461.469 187.187 461.469 186.675 459.832C182.99 448.676 178.897 441.922 171.323 434.962C164.671 429.026 155.46 424.319 146.658 422.681C140.416 421.453 140.313 421.351 136.526 415.108C131.716 407.33 120.868 396.686 113.294 392.08C90.8812 378.776 65.4999 377.241 43.4961 387.884C18.2172 400.063 0 427.287 0 452.873C0 462.493 2.66094 472.523 7.77812 483.064C11.8719 491.149 14.1234 494.219 21.3898 501.486C31.5219 511.413 38.2765 515.712 50.8648 520.317L59.871 523.49L138.573 523.797C197.421 524.001 218.094 523.797 220.244 522.876C225.258 520.829 227.408 514.586 224.951 509.162C222.29 503.43 224.44 503.533 143.383 503.533C93.4398 503.533 66.8304 503.123 63.2484 502.407C39.607 497.597 20.4687 474.979 20.4687 451.951C20.4687 441.41 27.0187 427.491 36.5367 417.973C54.2421 400.268 76.7578 396.481 98.4546 407.432C104.698 410.605 117.695 421.862 117.695 424.114C117.695 424.728 114.83 426.877 111.452 428.822C102.753 433.734 98.2499 438.954 98.2499 444.071C98.2499 448.676 101.73 452.873 106.437 453.896C109.712 454.612 111.759 453.691 118.412 448.676C137.345 434.246 164.569 445.811 167.434 469.452C168.969 482.45 174.189 485.316 190.155 481.529C208.883 477.128 224.747 462.084 229.455 444.276C230.785 438.954 231.194 432.916 231.194 416.233L231.297 395.048H262H292.703L292.805 416.233C292.805 432.916 293.215 438.954 294.545 444.276C299.253 462.084 315.116 477.128 333.845 481.529C349.811 485.316 355.03 482.45 356.565 469.452C359.431 445.811 386.654 434.246 405.588 448.676C412.24 453.691 414.287 454.612 417.562 453.896C422.372 452.873 425.75 448.676 425.75 443.866C425.75 440.284 425.136 439.056 420.837 434.962C418.176 432.404 413.468 429.026 410.5 427.491L405.076 424.83L411.422 418.178C424.726 404.259 444.683 398.221 462.082 402.724C481.732 407.944 499.028 426.263 502.712 446.016C507.215 470.169 487.258 496.88 460.751 502.407C457.067 503.123 430.867 503.533 380.616 503.533C317.982 503.533 305.496 503.737 303.04 504.966C296.285 508.548 296.285 518.987 303.04 522.569C307.543 524.82 453.178 524.718 464.436 522.364C503.531 514.279 530.243 476.412 522.567 439.977C518.78 422.374 506.192 404.259 489.919 393.104C466.687 377.241 436.393 376.831 410.705 392.08C403.132 396.686 392.283 407.33 387.473 415.108C383.686 421.351 383.584 421.453 377.341 422.681C368.54 424.319 359.329 429.026 352.676 434.962C345.103 441.922 341.009 448.676 337.325 459.832C336.813 461.469 336.404 461.469 331.696 459.013C324.532 455.431 320.233 451.337 316.651 444.992L313.683 439.568L313.376 417.257L313.069 395.048H319.312C326.681 395.048 330.877 393.206 332.412 389.215C333.026 387.68 334.254 380.823 335.176 374.068C335.994 367.313 337.018 360.047 337.325 358L337.939 354.213L364.651 353.906C390.85 353.599 391.567 353.497 396.582 351.04C403.132 347.766 409.272 341.625 412.445 335.177C414.39 331.186 414.901 328.32 414.901 321.873C415.004 309.284 413.673 307.135 381.537 269.677L353.393 236.927L356.361 215.947C362.808 169.79 360.966 141.236 349.606 106.951C339.576 76.9638 325.146 53.2201 303.551 30.8068C287.893 14.7389 268.038 0.00134277 262.102 0.00134277C260.669 0.00134277 257.394 1.22949 254.836 2.76465ZM271.313 29.067C279.705 35.4123 296.08 51.5826 300.788 58.235L303.04 61.4076H262H220.96L223.212 58.0303C229.25 49.5357 258.622 22.6193 262 22.517C262.307 22.517 266.503 25.485 271.313 29.067ZM317.777 84.3326C321.052 89.2451 328.626 107.667 332.003 118.925C337.632 137.756 339.167 148.4 339.269 170.404C339.269 189.337 339.065 191.691 329.649 261.694L319.926 333.642H262H204.073L194.453 262.206C187.801 212.672 184.73 186.574 184.423 176.851C183.502 147.376 189.233 120.255 202.333 92.0084L207.041 81.8764H261.59H316.242L317.777 84.3326ZM178.999 299.357C181.353 317.369 183.195 332.516 183.195 332.926C183.195 333.335 172.654 333.642 159.758 333.437L136.219 333.13L133.149 330.162C129.669 326.785 128.237 321.873 129.669 317.779C130.795 314.401 173.165 264.765 173.984 265.788C174.394 266.3 176.543 281.344 178.999 299.357ZM373.043 291.169C384.096 304.065 393.614 315.834 394.228 317.267C395.763 321.258 394.432 326.58 390.953 330.06L387.883 333.13L364.343 333.437C351.346 333.642 340.804 333.335 340.804 332.926C340.702 331.288 349.197 267.63 349.606 266.198C350.22 264.355 348.378 262.411 373.043 291.169ZM316.856 356.874C316.549 358.512 316.037 362.298 315.73 365.369C315.321 368.439 314.809 371.816 314.604 372.737C314.093 374.477 310.715 374.58 262 374.58C213.284 374.58 209.907 374.477 209.395 372.737C209.19 371.816 208.679 368.439 208.269 365.369C207.962 362.298 207.451 358.512 207.144 356.874L206.53 354.111H262H317.47L316.856 356.874Z" fill="white"/>
<path d="M250.025 130.392C231.501 134.895 215.842 151.065 211.953 169.692C208.371 186.681 213.488 203.465 226.077 216.053C246.443 236.42 277.556 236.42 297.922 216.053C318.288 195.687 318.288 164.574 297.922 144.208C285.027 131.313 267.321 126.195 250.025 130.392ZM275.713 152.907C286.459 158.127 292.191 167.645 292.191 180.131C292.191 188.83 290.041 194.663 284.617 200.906C276.225 210.322 260.362 213.29 248.49 207.456C232.115 199.371 226.486 179.005 236.413 163.449C244.601 150.553 261.59 146.05 275.713 152.907Z" fill="white"/>
<path d="M256.986 504.964C248.082 509.877 251.869 524 262.001 524C267.22 524 272.235 518.985 272.235 513.868C272.235 506.192 263.74 501.177 256.986 504.964Z" fill="white"/>
</svg>
