<svg width="331" height="685" viewBox="0 0 331 685" fill="none" xmlns="http://www.w3.org/2000/svg">
<path opacity="0.5" d="M160.364 679.644C-0.124511 674.676 -8.43186 673.802 -30.19 658.084C-62.1121 635.617 -97.883 580.941 -110.803 535.426C-121.428 498.717 -121.766 489.945 -119.113 336.584L-116.333 175.921L-99.3361 127.271C-79.753 70.6301 -51.7017 33.8596 -13.1487 12.6113C8.09812 1.29081 24.776 -0.612194 106.997 0.810226L202.432 2.46125L201.232 71.8386L200.032 141.216L115.853 139.76C19.9285 138.1 4.65568 143.68 -13.7464 188.653C-22.9474 211.14 -24.1916 226.459 -26.1246 338.193C-28.5124 476.217 -25.4024 494.534 4.47362 522.079C17.9623 534.731 32.6194 536.446 175 541.101L330.105 545.975L328.905 615.353L327.705 684.73L160.364 679.644Z" fill="url(#paint0_linear_1516_133)"/>
<defs>
<linearGradient id="paint0_linear_1516_133" x1="-119.119" y1="336.949" x2="333.586" y2="344.781" gradientUnits="userSpaceOnUse">
<stop stop-color="#FF4F03"/>
<stop offset="1" stop-color="#FF4F03" stop-opacity="0"/>
</linearGradient>
</defs>
</svg>
