<svg width="82" height="78" viewBox="0 0 82 78" fill="none" xmlns="http://www.w3.org/2000/svg">
<mask id="mask0_1445_96" style="mask-type:luminance" maskUnits="userSpaceOnUse" x="3" y="0" width="77" height="77">
<path d="M79.6803 0.601562H3.36035V76.9215H79.6803V0.601562Z" fill="white"/>
</mask>
<g mask="url(#mask0_1445_96)">
<path d="M68.9667 68.8504L74.9833 1.77344H8.05664L8.13525 2.64388L14.064 68.8598L14.1143 69.411L41.2668 76.9193H41.6946L68.91 69.4046L68.9603 68.8534L68.9667 68.8504ZM41.5782 16.4237H61.0248L60.4399 23.1868L41.2542 31.6783L41.575 33.2063H59.5784L57.5056 56.8492L41.509 61.2637L25.5188 56.8552L24.5123 45.5335H31.0953L31.6236 51.2726L31.6739 51.8298L41.3769 54.3975H41.7952L51.3914 51.7424L51.4383 51.1882L52.3442 40.5862L52.4167 39.7221H23.9619L23.3643 32.9183L43.2074 24.4612L42.8929 22.927H22.512L21.9301 16.4144H41.5562L41.5782 16.4237Z" fill="#FF4F03"/>
</g>
</svg>
