<svg width="1920" height="266" viewBox="0 0 1920 266" fill="none" xmlns="http://www.w3.org/2000/svg">
<path d="M149.651 116.029C242.63 109.847 308.867 127.484 415.924 135.472C474.915 139.815 723.696 124.605 932.511 63.9786C1141.33 3.35242 1122.06 84.0579 1237.4 43.7076C1409.93 -16.2164 1651.3 42.3151 1651.3 42.3151L1653.8 79.9609L-389.684 215.826L-391.98 181.302C-391.98 181.302 -333.19 194.969 -202.611 186.287C-2.96862 172.918 64.4377 121.694 149.651 116.029Z" fill="white" fill-opacity="0.1"/>
<path d="M578.447 175.033C166.5 273.73 38.9875 183.443 -76.0825 218.551C-250.484 271.978 -388.529 233.187 -388.529 233.187L-391.721 185.188L1651.77 49.3225L1654.96 97.3217C1654.96 97.3217 1529.45 126.743 1462.6 133.773C1395.75 140.882 1333.61 132.416 1306.52 126.303C1257.98 115.559 1131.76 90.9222 1028.55 94.5537C925.345 98.1853 617.647 165.724 578.447 175.033Z" fill="white" fill-opacity="0.1"/>
</svg>
