<svg width="1280" height="222" viewBox="0 0 1280 222" fill="none" xmlns="http://www.w3.org/2000/svg">
<path opacity="0.33" d="M327.542 40.6515C390.148 44.8098 432.309 69.6513 502.723 89.434C541.529 100.277 708.896 112.724 854.675 75.6637C1000.45 38.6038 978.69 116.582 1059.97 89.2993C1181.51 48.9192 1335.77 133.745 1335.77 133.745L1333.27 171.391L-42.6938 79.9989L-40.4007 45.4743C-40.4007 45.4743 -2.76066 65.5503 85.1637 71.3902C219.602 80.2246 270.164 36.8404 327.542 40.6515Z" fill="white" fill-opacity="0.1"/>
<path opacity="0.33" d="M606.58 146.698C321.304 199.057 246.378 95.316 165.857 117.425C43.7945 151.149 -43.8473 97.3588 -43.8473 97.3588L-40.6592 49.3594L1335.31 140.751L1332.12 188.751C1332.12 188.751 1245.28 204.06 1199.98 203.635C1154.67 203.291 1114.22 188.006 1096.86 178.939C1065.72 162.9 984.385 124.469 915.25 116.646C846.115 108.824 633.717 141.797 606.58 146.698Z" fill="white" fill-opacity="0.1"/>
</svg>
