<svg width="1280" height="222" viewBox="0 0 1280 222" fill="none" xmlns="http://www.w3.org/2000/svg">
<path d="M328.089 83.4446C390.695 79.2821 435.772 98.3263 508.184 108.618C548.084 114.23 715.627 104.421 855.22 48.3973C994.813 -7.62654 983.559 72.5463 1060.51 34.748C1175.64 -21.3592 1339.77 42.3073 1339.77 42.3073L1342.28 79.9531L-33.6848 171.436L-35.9802 136.912C-35.9802 136.912 3.98534 151.831 91.9093 145.985C226.335 136.953 270.711 87.2594 328.089 83.4446Z" fill="white" fill-opacity="0.1"/>
<path d="M618.706 151.635C342.867 241.282 254.873 148.368 177.985 180.937C61.4584 230.516 -32.5304 188.796 -32.5304 188.796L-35.7217 140.797L1340.24 49.3135L1343.43 97.3127C1343.43 97.3127 1259.38 123.978 1214.42 129.552C1169.46 135.206 1127.35 125.408 1108.94 118.718C1075.96 106.94 990.248 79.6092 920.686 81.0039C851.123 82.3987 644.956 143.187 618.706 151.635Z" fill="white" fill-opacity="0.1"/>
</svg>
