<svg width="82" height="82" viewBox="0 0 82 82" fill="none" xmlns="http://www.w3.org/2000/svg">
<mask id="mask0_1443_37" style="mask-type:luminance" maskUnits="userSpaceOnUse" x="0" y="0" width="82" height="82">
<path d="M56.793 0.601562H25.793C11.9859 0.601562 0.792969 11.7944 0.792969 25.6016V56.6016C0.792969 70.4087 11.9859 81.6016 25.793 81.6016H56.793C70.6001 81.6016 81.793 70.4087 81.793 56.6016V25.6016C81.793 11.7944 70.6001 0.601562 56.793 0.601562Z" fill="white"/>
</mask>
<g mask="url(#mask0_1443_37)">
<path d="M17.6807 19.0625C17.6807 15.9296 18.9252 12.9251 21.1405 10.7098C23.3557 8.49452 26.3603 7.25 29.4932 7.25V7.25C36.017 7.25 41.3057 12.5386 41.3057 19.0625V19.0625C41.3057 25.5864 36.017 30.875 29.4932 30.875V30.875C26.3603 30.875 23.3557 29.6305 21.1405 27.4152C18.9252 25.1999 17.6807 22.1954 17.6807 19.0625Z" stroke="#FF4F03" stroke-width="2" stroke-linecap="round" stroke-linejoin="round"/>
<path d="M41.3203 19.0625C41.3203 12.5386 46.609 7.25 53.1328 7.25V7.25C54.684 7.25 56.2203 7.55555 57.6531 8.14915C59.0863 8.74279 60.3886 9.61291 61.4857 10.7098C62.5824 11.8067 63.4527 13.1089 64.0462 14.542C64.6398 15.9752 64.9453 17.5113 64.9453 19.0625C64.9453 20.6137 64.6398 22.1498 64.0462 23.5829C63.4527 25.0161 62.5824 26.3183 61.4857 27.4152C60.3886 28.5121 59.0863 29.3822 57.6531 29.9758C56.2203 30.5695 54.684 30.875 53.1328 30.875V30.875C46.609 30.875 41.3203 25.5864 41.3203 19.0625V19.0625Z" stroke="#FF4F03" stroke-width="2" stroke-linecap="round" stroke-linejoin="round"/>
<path d="M41.3203 42.5703C41.3203 41.0191 41.6259 39.483 42.2195 38.0499C42.8131 36.6167 43.6832 35.3145 44.7801 34.2176C45.877 33.1207 47.1793 32.2506 48.6126 31.657C50.0454 31.0634 51.5817 30.7578 53.1328 30.7578C54.684 30.7578 56.2203 31.0634 57.6531 31.657C59.0863 32.2506 60.3886 33.1207 61.4857 34.2176C62.5824 35.3145 63.4527 36.6167 64.0462 38.0499C64.6398 39.483 64.9453 41.0191 64.9453 42.5703C64.9453 44.1216 64.6398 45.6578 64.0462 47.0906C63.4527 48.5238 62.5824 49.8261 61.4857 50.9232C60.3886 52.0199 59.0863 52.8902 57.6531 53.4837C56.2203 54.0773 54.684 54.3828 53.1328 54.3828C51.5817 54.3828 50.0454 54.0773 48.6126 53.4837C47.1793 52.8902 45.877 52.0199 44.7801 50.9232C43.6832 49.8261 42.8131 48.5238 42.2195 47.0906C41.6259 45.6578 41.3203 44.1216 41.3203 42.5703Z" stroke="#FF4F03" stroke-width="2" stroke-linecap="round" stroke-linejoin="round"/>
<path d="M17.6807 66.4297C17.6807 63.2968 18.9252 60.2921 21.1405 58.0768C23.3557 55.8614 26.3603 54.6172 29.4932 54.6172V54.6172C36.017 54.6172 41.3057 59.9058 41.3057 66.4297V66.4297C41.3057 69.5626 40.0611 72.5672 37.8459 74.7821C35.6306 76.9975 32.626 78.2422 29.4932 78.2422C26.3603 78.2422 23.3557 76.9975 21.1405 74.7821C18.9252 72.5672 17.6807 69.5626 17.6807 66.4297Z" stroke="#FF4F03" stroke-width="2" stroke-linecap="round" stroke-linejoin="round"/>
<path d="M17.6807 42.5703C17.6807 39.4375 18.9252 36.4329 21.1405 34.2176C23.3557 32.0023 26.3603 30.7578 29.4932 30.7578V30.7578C36.017 30.7578 41.3057 36.0465 41.3057 42.5703V42.5703C41.3057 49.0942 36.017 54.3828 29.4932 54.3828V54.3828C26.3603 54.3828 23.3557 53.1381 21.1405 50.9232C18.9252 48.7079 17.6807 45.7032 17.6807 42.5703Z" stroke="#FF4F03" stroke-width="2" stroke-linecap="round" stroke-linejoin="round"/>
</g>
</svg>
