<svg width="82" height="81" viewBox="0 0 82 81" fill="none" xmlns="http://www.w3.org/2000/svg">
<path d="M80.2658 36.9511L44.8983 2.10675C42.8633 0.0998322 39.5601 0.0998322 37.5226 2.10675L30.1789 9.34338L39.4942 18.5219C41.6597 17.8015 44.1419 18.2845 45.8673 19.9849C47.6016 21.696 48.0884 24.1626 47.3389 26.3035L56.3171 35.15C58.4892 34.4125 60.9953 34.889 62.7297 36.601C65.1546 38.9895 65.1546 42.86 62.7297 45.2492C60.3045 47.6392 56.3764 47.6392 53.9499 45.2492C52.1266 43.4512 51.6756 40.8116 52.5991 38.5981L44.2259 30.3478L44.2252 52.0584C44.8164 52.3467 45.3743 52.7316 45.8669 53.2149C48.2911 55.6032 48.2911 59.4729 45.8669 61.8652C43.4421 64.2534 39.5122 64.2534 37.0899 61.8652C34.6654 59.4731 34.6654 55.6034 37.0899 53.2149C37.6891 52.6256 38.3824 52.1795 39.1222 51.8805V29.9681C38.382 29.6704 37.6896 29.2277 37.0895 28.6336C35.253 26.8255 34.8107 24.1697 35.7526 21.9477L26.5696 12.898L2.32105 36.7901C0.283608 38.7986 0.283608 42.0533 2.32105 44.0604L37.6864 78.9048C39.7225 80.9117 43.0246 80.9117 45.0635 78.9048L80.2654 44.225C82.3022 42.2171 82.3022 38.9614 80.2654 36.954" fill="#FF4F03"/>
</svg>
