<svg width="74" height="78" viewBox="0 0 74 78" fill="none" xmlns="http://www.w3.org/2000/svg">
<mask id="mask0_1445_107" style="mask-type:luminance" maskUnits="userSpaceOnUse" x="0" y="0" width="74" height="78">
<path d="M73.6124 0.601562H0.119141V77.1832H73.6124V0.601562Z" fill="white"/>
</mask>
<g mask="url(#mask0_1445_107)">
<path fill-rule="evenodd" clip-rule="evenodd" d="M0.119141 0.601562H73.6126V77.1832H0.119141V0.601562ZM56.3015 64.8025C52.8934 64.8025 50.9672 62.9519 49.4884 60.431L43.8753 63.8293C45.9025 68.0031 50.0455 71.1875 56.4608 71.1875C63.0202 71.1875 67.9047 67.6395 67.9047 61.1586C67.9047 55.1501 64.5913 52.4795 58.7241 49.8533L56.997 49.0842C54.0326 47.744 52.7497 46.873 52.7497 44.7127C52.7497 42.9672 54.0358 41.6302 56.0569 41.6302C58.0381 41.6302 59.3148 42.5013 60.5 44.7127L65.8775 41.1165C63.6019 36.9459 60.4479 35.3537 56.0569 35.3537C49.8895 35.3537 45.9423 39.4636 45.9423 44.8624C45.9423 50.7179 49.2495 53.4907 54.2345 55.7019L55.9616 56.4745C59.1128 57.9101 60.9902 58.7845 60.9902 61.251C60.9902 63.3125 59.1617 64.8025 56.3015 64.8025ZM29.5379 64.7545C27.1647 64.7545 26.1756 63.0635 25.0916 61.0534L19.4693 64.6014C21.0984 68.1943 24.3015 71.1746 29.8288 71.1746C35.9502 71.1746 40.1424 67.7828 40.1424 60.3322V35.7622H33.2371V60.2364C33.2371 63.8327 31.807 64.7545 29.5379 64.7545Z" fill="#FF4F03"/>
</g>
</svg>
