<svg width="30" height="30" viewBox="0 0 30 30" fill="none" xmlns="http://www.w3.org/2000/svg">
<path d="M12.2168 3.78813C8.0625 4.23344 4.73438 7.28031 3.91406 11.3877C3.72656 12.3311 3.72656 13.9248 3.91406 14.8682C4.28906 16.7432 5.17383 18.4131 6.48633 19.7256C7.83398 21.0733 9.43359 21.9288 11.3672 22.333C12.2695 22.5264 13.9395 22.5264 14.8652 22.3389C15.9199 22.128 17.0391 21.7061 17.8359 21.2198C18.0527 21.0909 18.252 20.9795 18.2695 20.9795C18.293 20.9795 19.4297 22.0987 20.8008 23.458C23.6309 26.2764 23.5605 26.2237 24.375 26.2178C24.9609 26.2178 25.3125 26.0772 25.6934 25.6963C26.0742 25.3155 26.2148 24.9639 26.2148 24.378C26.2148 23.5518 26.2734 23.628 23.4434 20.7862C21.0352 18.3721 20.9531 18.2784 21.0293 18.1495C21.6562 17.1592 22.1016 16.0459 22.3359 14.8565C22.5234 13.9366 22.5234 12.3311 22.3359 11.3877C21.5801 7.59086 18.6855 4.68461 14.9121 3.92875C14.3379 3.81156 12.7559 3.72953 12.2168 3.78813ZM14.1211 6.65336C15.498 6.85844 16.752 7.49711 17.7539 8.49906C19.7051 10.4502 20.2324 13.4092 19.0723 15.8702C18.709 16.6377 18.3281 17.1827 17.7539 17.7569C15.8027 19.7022 12.8438 20.2354 10.3945 19.0811C8.35547 18.1143 6.97852 16.292 6.65039 14.1241C6.22266 11.3291 7.61133 8.60453 10.1309 7.30375C11.3789 6.65922 12.7266 6.43656 14.1211 6.65336Z" fill="#FF4F03"/>
</svg>
