<svg width="82" height="45" viewBox="0 0 82 45" fill="none" xmlns="http://www.w3.org/2000/svg">
<g clip-path="url(#clip0_1445_38)">
<mask id="mask0_1445_38" style="mask-type:luminance" maskUnits="userSpaceOnUse" x="0" y="-1" width="83" height="47">
<path d="M0.291992 -0.61837H82.2941V45.5078H0.291992V-0.61837Z" fill="white"/>
</mask>
<g mask="url(#mask0_1445_38)">
<path d="M41.2932 41.6094C62.1822 41.6094 79.1167 33.0275 79.1167 22.4412C79.1167 11.8551 62.1822 3.27311 41.2932 3.27311C20.4042 3.27311 3.46973 11.8551 3.46973 22.4412C3.46973 33.0275 20.4042 41.6094 41.2932 41.6094Z" fill="#FF4F03"/>
</g>
<mask id="mask1_1445_38" style="mask-type:luminance" maskUnits="userSpaceOnUse" x="0" y="-1" width="83" height="47">
<path d="M0.291992 -0.61837H82.2941V45.5078H0.291992V-0.61837Z" fill="white"/>
</mask>
<g mask="url(#mask1_1445_38)">
<path d="M23.317 24.8157C25.0347 24.8157 26.3169 24.499 27.1283 23.8746C27.9309 23.2565 28.4853 22.1858 28.7759 20.6923C29.0468 19.2962 28.9436 18.3215 28.4692 17.7954C27.9842 17.2581 26.9355 16.9857 25.3524 16.9857H22.6075L21.0858 24.8157H23.317ZM14.3391 34.4609C14.2117 34.4609 14.0907 34.404 14.0097 34.3055C13.9285 34.2071 13.8956 34.0775 13.92 33.9524L17.9529 13.2026C17.9919 13.002 18.1677 12.8571 18.3721 12.8571H27.0641C29.7958 12.8571 31.829 13.5988 33.107 15.0619C34.3919 16.5327 34.7886 18.5885 34.2862 21.1723C34.0818 22.225 33.7302 23.2026 33.2411 24.0778C32.7515 24.9541 32.1045 25.7649 31.3177 26.4881C30.3758 27.3696 29.3097 28.0088 28.152 28.385C27.0127 28.7561 25.5495 28.9443 23.8031 28.9443H20.2835L19.2784 34.1153C19.2394 34.316 19.0637 34.4609 18.8593 34.4609H14.3391Z" fill="black"/>
<path d="M22.9599 17.4154H25.3528C27.2635 17.4154 27.9272 17.8346 28.1527 18.0845C28.5268 18.4993 28.5974 19.374 28.357 20.6139C28.0868 22.0019 27.5859 22.9861 26.8681 23.5387C26.1332 24.1045 24.9385 24.3912 23.3174 24.3912H21.6042L22.9599 17.4154ZM27.0644 12.4326H18.3724C17.9635 12.4326 17.612 12.7224 17.534 13.1238L13.5011 33.8736C13.4524 34.124 13.5181 34.383 13.6803 34.5798C13.8426 34.7767 14.0843 34.8906 14.3394 34.8906H18.8595C19.2685 34.8906 19.62 34.6008 19.6981 34.1994L20.636 29.374H23.8034C25.5947 29.374 27.1026 29.1787 28.2849 28.7936C29.5009 28.3985 30.6196 27.7287 31.6097 26.8027C32.4286 26.0493 33.1031 25.2037 33.6142 24.289C34.1254 23.374 34.4927 22.3537 34.7059 21.2564C35.2348 18.5366 34.8051 16.3587 33.429 14.7836C32.0663 13.2236 29.9248 12.4326 27.0644 12.4326ZM20.5679 25.2454H23.3174C25.1398 25.2454 26.4973 24.9022 27.3892 24.2155C28.2812 23.5288 28.8829 22.3826 29.1955 20.7764C29.4946 19.2343 29.3584 18.1461 28.7868 17.5122C28.2145 16.8782 27.07 16.5612 25.3528 16.5612H22.2558L20.5679 25.2454ZM27.0644 13.2868C29.6793 13.2868 31.5868 13.973 32.7858 15.3455C33.9846 16.718 34.3457 18.6339 33.8673 21.0935C33.6704 22.1067 33.3375 23.0331 32.8687 23.8723C32.3993 24.7121 31.7864 25.48 31.029 26.1763C30.1264 27.021 29.1237 27.6229 28.0204 27.9814C26.9171 28.3408 25.5118 28.5198 23.8034 28.5198H19.9317L18.8595 34.0364H14.3394L18.3724 13.2868H27.0644Z" fill="white"/>
<path d="M44.6503 28.9453C44.5227 28.9453 44.4018 28.8884 44.3208 28.7899C44.2396 28.6915 44.2067 28.5621 44.231 28.4368L46.015 19.2558C46.1847 18.3827 46.1428 17.756 45.8973 17.4912C45.7469 17.3293 45.2953 17.0579 43.9601 17.0579H40.7281L38.4852 28.5997C38.4462 28.8004 38.2703 28.9453 38.0659 28.9453H33.5814C33.4539 28.9453 33.333 28.8884 33.2518 28.7899C33.1707 28.6915 33.1378 28.5619 33.1622 28.4368L37.1951 7.68698C37.2341 7.48639 37.4099 7.34146 37.6143 7.34146H42.0988C42.2264 7.34146 42.3472 7.39841 42.4284 7.49678C42.5095 7.59529 42.5424 7.7247 42.5181 7.84999L41.5449 12.8581H45.0217C47.6704 12.8581 49.4665 13.3251 50.5126 14.2857C51.5789 15.2658 51.9116 16.8328 51.5016 18.9438L49.6252 28.5997C49.5862 28.8004 49.4105 28.9453 49.2059 28.9453H44.6503Z" fill="black"/>
<path d="M42.0992 6.91696H37.6147C37.2057 6.91696 36.8542 7.20681 36.7762 7.60814L32.7432 28.3579C32.6946 28.6084 32.7603 28.8673 32.9226 29.0642C33.0849 29.2611 33.3267 29.375 33.5818 29.375H38.0663C38.4751 29.375 38.8268 29.0851 38.9048 28.6838L41.0806 17.4875H43.9605C45.2934 17.4875 45.5732 17.7723 45.5844 17.7845C45.6653 17.8715 45.7716 18.2744 45.5961 19.177L43.8121 28.3579C43.7634 28.6084 43.8292 28.8673 43.9915 29.0642C44.1538 29.2611 44.3955 29.375 44.6506 29.375H49.2063C49.6152 29.375 49.9668 29.0851 50.0448 28.6838L51.9211 19.0279C52.3614 16.7613 51.9847 15.0611 50.8019 13.974C49.6733 12.9374 47.7827 12.4336 45.0221 12.4336H42.0632L42.9377 7.93416C42.9863 7.68374 42.9206 7.42463 42.7583 7.22789C42.596 7.03099 42.3543 6.91696 42.0992 6.91696ZM42.0992 7.77115L41.027 13.2878H45.0221C47.5358 13.2878 49.2697 13.7266 50.2239 14.6029C51.1782 15.4799 51.4641 16.9009 51.0827 18.8651L49.2063 28.5208H44.6506L46.4346 19.34C46.6376 18.2956 46.563 17.5832 46.2105 17.2034C45.8579 16.8236 45.1078 16.6334 43.9605 16.6334H40.3763L38.0663 28.5208H33.5818L37.6147 7.77115H42.0992Z" fill="white"/>
<path d="M58.5973 24.8157C60.3149 24.8157 61.5972 24.499 62.4085 23.8746C63.2112 23.2567 63.7656 22.186 64.0563 20.6923C64.3272 19.2962 64.224 18.3215 63.7495 17.7954C63.2644 17.2581 62.2158 16.9857 60.6327 16.9857H57.8877L56.366 24.8157H58.5973ZM49.6195 34.4609C49.4921 34.4609 49.3711 34.404 49.2901 34.3055C49.2089 34.2071 49.1759 34.0775 49.2002 33.9524L53.2331 13.2026C53.2723 13.002 53.448 12.8571 53.6525 12.8571H62.3443C65.0762 12.8571 67.1093 13.5988 68.3874 15.0619C69.6723 16.5325 70.0689 18.5884 69.5666 21.1723C69.3619 22.225 69.0104 23.2026 68.5214 24.0778C68.0318 24.9541 67.3848 25.7649 66.5979 26.4881C65.656 27.3696 64.59 28.0088 63.4323 28.385C62.2929 28.7561 60.8297 28.9443 59.0833 28.9443H55.5636L54.559 34.1153C54.5198 34.316 54.3441 34.4609 54.1396 34.4609H49.6195Z" fill="black"/>
<path d="M58.2401 17.4154H60.6329C62.5436 17.4154 63.2073 17.8346 63.4328 18.0845C63.8071 18.4993 63.8777 19.374 63.6371 20.6137C63.3669 22.0019 62.8659 22.9861 62.1483 23.5387C61.4134 24.1045 60.2186 24.3912 58.5975 24.3912H56.8845L58.2401 17.4154ZM62.3446 12.4326H53.6526C53.2438 12.4326 52.8923 12.7224 52.8142 13.1238L48.7813 33.8736C48.7326 34.124 48.7984 34.383 48.9606 34.5798C49.1229 34.7767 49.3646 34.8906 49.6197 34.8906H54.1398C54.5487 34.8906 54.9003 34.6008 54.9783 34.1994L55.9161 29.374H59.0836C60.8748 29.374 62.3827 29.1787 63.5651 28.7936C64.781 28.3985 65.9 27.7285 66.8901 26.8025C67.709 26.0492 68.3833 25.2037 68.8943 24.289C69.4056 23.374 69.7729 22.3537 69.986 21.2564C70.5149 18.5365 70.0852 16.3586 68.7091 14.7835C67.3464 13.2236 65.2051 12.4326 62.3446 12.4326ZM55.8482 25.2454H58.5975C60.4199 25.2454 61.7774 24.9022 62.6693 24.2155C63.5615 23.5288 64.163 22.3826 64.4756 20.7764C64.7749 19.2343 64.6386 18.1461 64.0669 17.5122C63.4946 16.8782 62.3501 16.5612 60.6329 16.5612H57.5359L55.8482 25.2454ZM62.3446 13.2868C64.9594 13.2868 66.8669 13.973 68.0659 15.3455C69.2649 16.718 69.6258 18.6339 69.1475 21.0935C68.9506 22.1067 68.6176 23.0331 68.1488 23.8723C67.6794 24.7121 67.0665 25.48 66.3091 26.1763C65.4066 27.021 64.4039 27.6229 63.3006 27.9814C62.1972 28.3408 60.7919 28.5198 59.0836 28.5198H55.2118L54.1398 34.0364H49.6197L53.6526 13.2868H62.3446Z" fill="white"/>
</g>
</g>
<defs>
<clipPath id="clip0_1445_38">
<rect x="0.792969" y="0.601562" width="81" height="43.6886" rx="21.8443" fill="white"/>
</clipPath>
</defs>
</svg>
