<svg width="82" height="82" viewBox="0 0 82 82" fill="none" xmlns="http://www.w3.org/2000/svg">
<path d="M64.0742 29.9608L61.7961 29.2014C61.7961 28.6952 62.0492 28.1889 62.0492 27.6827C63.8211 19.3295 62.5555 12.4951 58.7586 10.217C54.9617 8.19199 48.8867 10.217 42.8117 15.5326C42.3055 16.0389 41.5461 16.5451 41.0398 17.0514C40.5336 16.7982 40.2805 16.292 39.7742 16.0389C33.6992 10.4701 27.3711 8.19199 23.5742 10.4701C19.7773 12.4951 18.7648 19.0764 20.2836 26.9233C20.5367 27.6827 20.5367 28.442 20.7898 29.2014C19.7773 29.4545 19.018 29.7077 18.2586 29.9608C10.6648 32.4921 5.85547 36.7952 5.85547 40.8452C5.85547 45.1483 10.918 49.7045 18.7648 52.2358C19.2711 52.4889 20.0305 52.742 20.7898 52.742C20.5367 53.5014 20.2836 54.5139 20.2836 55.2733C18.7648 63.1202 20.0305 69.1952 23.5742 71.4733C27.3711 73.7514 33.6992 71.4733 40.0273 65.9045C40.5336 65.3983 41.0398 64.892 41.5461 64.6389C42.0523 65.1452 42.8117 65.9045 43.5711 66.4108C49.6461 71.7264 55.468 73.7514 59.2648 71.4733C63.0617 69.1952 64.3273 62.6139 62.8086 54.5139C62.8086 54.0077 62.5555 53.2483 62.3023 52.4889C62.8086 52.2358 63.3148 52.2358 63.568 51.9827C71.668 49.1983 76.9836 44.8952 76.9836 40.592C76.7305 36.7952 71.668 32.7452 64.0742 29.9608ZM45.0898 18.0639C50.4055 13.5076 55.2148 11.7357 57.493 13.0014C59.7711 14.267 60.7836 19.8357 59.2648 27.1764C59.2648 27.6827 59.0117 28.1889 59.0117 28.6952C55.9742 27.9358 52.6836 27.4296 49.6461 27.1764C47.8742 24.6452 45.8492 22.1139 43.5711 19.5826L45.0898 18.0639ZM26.8648 44.642C27.6242 45.9077 28.1305 47.1733 28.8898 48.4389C29.6492 49.7045 30.4086 50.9702 31.168 51.9827C28.8898 51.7295 26.8648 51.4764 24.5867 50.9702C25.093 48.9452 25.8523 46.9202 26.8648 44.642ZM26.8648 37.5545C25.8523 35.5295 25.3461 33.5045 24.5867 31.4795C26.6117 30.9733 28.8898 30.7202 30.9148 30.467C30.1555 31.7327 29.3961 32.7452 28.6367 34.0108C28.1305 35.0233 27.3711 36.2889 26.8648 37.5545ZM28.3836 41.0983C29.3961 39.0733 30.4086 37.3014 31.4211 35.2764C32.4336 33.5045 33.6992 31.4795 34.9648 29.7077C36.9898 29.4545 39.268 29.4545 41.5461 29.4545C43.8242 29.4545 45.8492 29.4545 48.1273 29.7077C49.393 31.4795 50.4055 33.2514 51.418 35.2764C52.4305 37.0483 53.443 39.0733 54.4555 41.0983C53.443 43.1233 52.4305 44.8952 51.418 46.9202C50.4055 48.692 49.1398 50.717 48.1273 52.4889C46.1023 52.742 43.8242 52.742 41.5461 52.742C39.268 52.742 37.243 52.742 35.218 52.4889C33.9523 50.717 32.9398 48.9452 31.6742 46.9202C30.4086 44.8952 29.3961 43.1233 28.3836 41.0983ZM53.6961 48.4389C54.4555 47.1733 55.2148 45.9077 55.7211 44.642C56.7336 46.667 57.493 48.692 57.9992 50.9702C55.7211 51.4764 53.6961 51.7295 51.418 51.9827C52.4305 50.717 53.1898 49.4514 53.6961 48.4389ZM55.7211 37.5545C54.9617 36.2889 54.4555 35.0233 53.6961 33.7577C52.9367 32.4921 52.1773 31.4795 51.6711 30.2139C53.9492 30.467 55.9742 30.9733 58.2523 31.2264C57.493 33.5045 56.7336 35.5295 55.7211 37.5545ZM41.293 21.6077C42.8117 23.1264 44.0773 24.8983 45.343 26.6702C42.5586 26.417 39.7742 26.417 36.9898 26.6702C38.5086 24.8983 40.0273 23.1264 41.293 21.6077ZM25.093 13.0014C27.3711 11.7357 32.6867 13.5076 38.2555 18.5701L39.268 19.5826C36.9898 21.8608 34.9648 24.392 33.193 27.1764C29.9023 27.4296 26.8648 27.9358 23.8273 28.6952C23.5742 27.9358 23.5742 27.1764 23.3211 26.417C21.8023 19.5826 22.8148 14.267 25.093 13.0014ZM21.5492 50.2108C21.043 49.9577 20.2836 49.9577 19.7773 49.7045C16.2336 48.4389 13.4492 46.9202 11.4242 45.4014C9.65234 43.8827 8.89297 42.3639 8.89297 41.0983C8.89297 38.567 12.6898 35.2764 19.2711 32.9983C20.0305 32.7452 20.7898 32.4921 21.8023 32.2389C22.5617 35.2764 23.5742 38.3139 25.093 41.0983C23.5742 44.1358 22.5617 47.1733 21.5492 50.2108ZM38.0023 64.1327C35.218 66.6639 32.4336 68.1827 30.1555 69.1952C27.8773 69.9545 26.3586 69.9545 25.093 69.4483C22.8148 68.1827 21.8023 63.1202 23.068 56.5389C23.3211 55.5264 23.5742 54.767 23.5742 53.7545C26.6117 54.5139 29.9023 55.0202 33.193 55.0202C34.9648 57.5514 36.9898 60.0827 39.268 62.6139C38.7617 63.1202 38.5086 63.6264 38.0023 64.1327ZM41.293 60.5889C39.7742 59.0702 38.5086 57.2983 36.9898 55.5264H45.343C44.3305 57.2983 42.8117 59.0702 41.293 60.5889ZM59.7711 64.892C59.2648 67.1702 58.5055 68.6889 57.493 69.1952C55.2148 70.4608 50.4055 68.6889 45.343 64.3858C44.8367 63.8795 44.0773 63.3733 43.5711 62.867C45.5961 60.5889 47.6211 58.0577 49.393 55.2733C52.6836 55.0202 55.7211 54.5139 59.0117 53.7545C59.2648 54.2608 59.2648 55.0202 59.518 55.5264C60.2773 59.0702 60.2773 62.3608 59.7711 64.892ZM62.3023 49.7045C61.7961 49.7045 61.543 49.9577 61.0367 49.9577C60.0242 46.9202 58.7586 43.8827 57.493 40.8452C58.7586 38.0608 60.0242 35.0233 61.0367 31.9858C61.7961 32.2389 62.5555 32.4921 63.0617 32.7452C69.643 35.0233 73.693 38.3139 73.693 40.8452C73.693 43.8827 69.3898 47.4264 62.3023 49.7045Z" fill="#FF4F03"/>
<path d="M41.2932 47.433C42.5588 47.433 43.8244 47.1798 44.8369 46.4205C45.8494 45.6611 46.6088 44.6486 47.115 43.6361C47.6213 42.3705 47.6213 41.1048 47.3682 39.8392C47.115 38.5736 46.6088 37.5611 45.5963 36.5486C44.8369 35.5361 43.5713 35.0298 42.3057 34.7767C41.04 34.5236 39.7744 34.7767 38.5088 35.0298C37.2432 35.5361 36.2307 36.2955 35.7244 37.308C34.965 38.3205 34.7119 39.5861 34.7119 40.8517C34.7119 41.6111 34.965 42.6236 35.2182 43.383C35.4713 44.1423 35.9775 44.9017 36.4838 45.408C36.99 45.9142 37.7494 46.4205 38.5088 46.6736C39.5213 47.1798 40.5338 47.433 41.2932 47.433Z" fill="#FF4F03"/>
</svg>
