<svg width="82" height="66" viewBox="0 0 82 66" fill="none" xmlns="http://www.w3.org/2000/svg">
<g clip-path="url(#clip0_1460_20)">
<mask id="mask0_1460_20" style="mask-type:luminance" maskUnits="userSpaceOnUse" x="0" y="2" width="82" height="62">
<path d="M81.793 2.625H0.792969V63.375H81.793V2.625Z" fill="white"/>
</mask>
<g mask="url(#mask0_1460_20)">
<path d="M70.4855 37.5459L70.8197 37.5409C72.9307 37.5409 74.928 38.0319 76.7 38.9078L76.6214 38.8723C78.1978 39.6337 79.5439 40.7997 80.522 42.2513L80.5447 42.2868C81.3964 43.5363 81.8176 45.0291 81.7447 46.5393V46.5242C81.709 47.222 81.5342 47.9056 81.2308 48.535C80.9275 49.1644 80.5015 49.7268 79.9777 50.1893L79.9727 50.1945C79.4078 50.7495 78.7302 51.1767 77.9858 51.4476L77.9477 51.4601C77.5258 51.5446 77.2939 51.4811 77.2517 51.2704C77.2096 51.0593 77.3993 50.8273 77.8212 50.5742C78.9652 49.8806 79.793 48.7618 80.0942 47.4431L80.102 47.4101C80.1676 46.531 79.9923 45.6507 79.5957 44.8637L79.6082 44.8916C79.077 43.7724 78.2555 42.8159 77.2289 42.1224L77.2035 42.1073C75.6173 41.095 73.8068 40.4875 71.931 40.3378L71.8905 40.3354C69.2042 39.953 66.4645 40.2714 63.9373 41.2591L64.0437 41.2213C64.4107 42.0793 64.641 43.0741 64.6737 44.1171V44.1296C64.6556 45.1458 64.38 46.1406 63.8733 47.0213C63.3664 47.9022 62.6447 48.6403 61.7756 49.1668L61.7477 49.182C60.963 49.7388 60.067 50.2276 59.1128 50.6071L59.0242 50.6376C58.3319 50.9708 57.5663 51.1226 56.7992 51.0781H56.8117C55.2104 50.7421 54.8308 49.3498 55.6727 46.9014C56.0398 45.8357 56.5537 44.9119 57.2042 44.0993L57.189 44.1171C58.0217 43.0286 58.9355 42.0743 59.9454 41.2288L59.9735 41.2061L59.7253 40.8366C59.2336 39.9871 58.822 39.0941 58.4952 38.1686L58.4598 38.0521C58.2065 37.2083 57.9956 36.4077 57.827 35.6498L57.7003 34.764L56.4347 37.1662C55.3378 39.1912 54.2832 40.9623 53.2707 42.4793L52.891 43.112C53.3162 44.1448 53.63 45.3421 53.7718 46.5926L53.777 46.6558C53.847 47.6318 53.6644 48.6095 53.2468 49.4944C52.829 50.3794 52.1905 51.1417 51.3925 51.7081L51.3747 51.7209C50.6074 52.1892 49.8127 52.6119 48.9952 52.9866L48.8434 53.0498C47.8878 53.4587 46.867 53.6942 45.8288 53.7459H45.8059C45.1004 53.795 44.3941 53.6605 43.7555 53.3561L43.7809 53.3662C43.5302 53.153 43.3573 52.8628 43.2889 52.5408C43.2207 52.2189 43.2611 51.8834 43.4038 51.5868L43.3988 51.5968C44.4113 50.1769 45.4085 48.9416 46.4692 47.7621L46.4363 47.7998L49.2207 44.2588L48.7169 43.1198C48.2797 42.3071 47.9105 41.4596 47.6132 40.5858L47.5777 40.4643C47.3247 39.6208 47.1139 38.8199 46.945 38.0623L46.8184 37.1764L45.5527 40.2139C44.5422 42.5747 43.6139 44.5989 42.7684 46.2863C41.5079 48.8175 40.4533 50.7583 39.6044 52.1081L39.3512 52.4878C38.3405 54.0893 37.3701 54.8901 36.4402 54.8901C35.5107 54.8901 34.8802 54.2994 34.5495 53.1181C34.2918 52.1719 34.1623 51.1955 34.1648 50.2148L34.1672 49.9413V49.9541L34.4202 48.1823V48.3088C33.7454 49.9102 33.0705 51.386 32.3954 52.7358C31.9844 53.5487 31.5078 54.3267 30.9703 55.0621L31.0032 55.014C30.4817 55.5608 29.7477 55.8998 28.9352 55.8998H28.915C28.8617 55.905 28.8009 55.905 28.7402 55.905C28.1256 55.9057 27.5327 55.6774 27.0773 55.2646L27.0797 55.2671C26.1819 54.3458 25.535 53.2092 25.2015 51.9663L25.189 51.9133C24.6917 50.5015 24.4741 49.0064 24.5485 47.5113V47.5367C24.7485 45.5218 25.1509 43.6766 25.7408 41.9173L25.6875 42.0971L21.134 44.7549V44.8814C21.9646 46.6268 22.313 48.5625 22.1437 50.4881L22.1465 50.4476C22.0238 52.9508 21.2252 55.3738 19.8354 57.4591L19.8683 57.4085C18.4786 59.6318 16.4315 61.3673 14.0109 62.3748L13.9274 62.4053C12.4723 63.0478 10.8985 63.3773 9.30788 63.3722C8.24981 63.3722 7.22213 63.2305 6.25013 62.9621L6.33113 62.9799C5.54569 62.7191 4.87891 62.1869 4.45041 61.4788L4.44281 61.4636C3.82956 60.5682 3.47646 59.5202 3.42273 58.4363V58.421C3.26262 56.885 3.53345 55.3343 4.20488 53.9434L4.1821 53.9939C5.59952 51.5589 7.61799 49.5282 10.0445 48.0961L10.1204 48.0556C11.931 46.811 13.8322 45.7032 15.8081 44.7421L16.0764 44.6233L16.7093 44.2436C15.9499 43.653 14.5577 42.6405 12.5327 41.2061C9.97895 39.5049 7.54799 37.6264 5.25788 35.5841L5.32116 35.6398C3.15086 33.7807 1.61109 31.2935 0.914251 28.5218L0.894001 28.4258C0.602764 26.6303 0.921823 24.789 1.80019 23.1961L1.77994 23.2393C3.13544 20.2917 5.11086 17.6714 7.57143 15.5569L7.60181 15.5316C10.2353 13.0459 13.1811 10.9135 16.365 9.18828L16.5852 9.07945C19.6763 7.31673 22.9202 5.8367 26.2775 4.65735L26.7077 4.52573C30.1967 3.27501 33.8754 2.63535 37.582 2.63488H37.587C40.8218 2.53282 44.0327 3.22276 46.9399 4.64468L46.8234 4.59153C49.1015 5.62935 50.8077 7.58348 51.491 9.97298L51.5062 10.0337C52.1 12.4417 51.8902 14.9777 50.9089 17.2554L50.9368 17.182C49.9076 19.7098 48.3576 21.9927 46.388 23.8823L46.3805 23.8898C44.4142 25.8396 42.0739 27.3721 39.5006 28.3953L39.3612 28.4436C36.448 29.6733 33.3337 30.3588 30.1729 30.466L30.1248 30.4686C28.133 30.6828 26.1186 30.5021 24.1967 29.9371L24.3055 29.9648C23.1356 29.598 22.0546 28.9921 21.1312 28.1854L21.1414 28.1928C20.5161 27.6854 20.004 27.0523 19.6379 26.335L19.6227 26.3021C19.3696 25.6269 19.3486 25.2263 19.5595 25.0997C19.7704 24.9731 19.918 24.952 20.0024 25.0364L20.6352 25.6693C21.3415 26.3248 22.1842 26.8412 23.1157 27.1703L23.1664 27.1855C24.4472 27.631 25.9254 27.8891 27.462 27.8891C27.9555 27.8891 28.4415 27.8638 28.92 27.8107L28.8617 27.8158C32.7819 27.3674 36.5415 26.0037 39.8372 23.834L39.7437 23.8924C42.391 22.3286 44.596 20.1158 46.1502 17.4629L46.1957 17.3769C46.9577 16.2581 47.4133 14.876 47.4133 13.3876C47.4133 12.4739 47.2412 11.598 46.9273 10.7931L46.945 10.8412C46.476 10.0926 45.8531 9.45233 45.1178 8.9627C44.3823 8.47307 43.5514 8.14531 42.6798 8.00113L42.6445 7.99606C39.8626 7.33975 36.973 7.28193 34.1672 7.82648L34.2937 7.80623C30.2507 8.51713 26.3376 9.83205 22.6854 11.7069L22.916 11.598C12.5411 16.8293 7.18416 22.1863 6.84496 27.6691V27.793C6.84496 30.0028 7.71318 32.01 9.12816 33.4933L9.12563 33.4909C10.721 35.268 12.5128 36.8584 14.4666 38.2318L14.5653 38.2976C16.2696 39.566 17.8755 40.9613 19.3696 42.4718L19.3721 42.4768L19.6253 42.7299L27.7253 38.3027C28.6245 36.9935 29.7448 35.8509 31.0362 34.926L31.0766 34.8982C32.0891 34.0477 33.375 33.4933 34.7847 33.3818L34.8078 33.3794C34.8583 33.3744 34.9165 33.3744 34.9772 33.3744C35.9215 33.3744 36.7315 33.9438 37.0808 34.7588L37.0858 34.7741C37.4568 35.6165 37.5872 36.5452 37.4629 37.4573L37.4655 37.432L37.2199 38.6799L37.5997 38.4268C37.8242 38.2563 38.0905 38.1492 38.3705 38.1166C38.6506 38.0842 38.9342 38.1273 39.1918 38.242L39.1817 38.2368C39.4646 38.3094 39.7078 38.49 39.8589 38.7398C40.0099 38.99 40.0567 39.2892 39.989 39.5733L39.9917 39.5659L39.612 40.9581C38.8527 43.9936 38.3471 46.1868 38.0957 47.5367C37.9331 48.1169 37.8697 48.7202 37.9084 49.3213V49.3061C37.9507 49.8124 38.0139 50.0656 38.0983 50.0656C38.1829 50.0656 38.3507 49.8124 38.602 49.3061L38.9817 48.4201C39.0661 48.4201 39.0661 48.4623 38.9817 48.5468L40.3737 45.6358C43.6644 38.3829 45.4356 34.3328 45.687 33.4858L46.4465 31.0835C46.5309 30.9149 46.8682 30.7471 47.459 30.5799C48.1656 30.3939 48.8949 30.3085 49.6256 30.3268H49.618C50.7994 30.3268 51.3899 30.622 51.3899 31.2128L51.2632 31.8456C50.9438 32.7448 50.6825 33.664 50.4812 34.5968L50.4532 34.7566C50.3259 35.6137 50.3492 36.4864 50.5217 37.3358L50.514 37.2877L50.6405 37.7913C50.8987 38.8471 51.2912 39.7734 51.805 40.6189L51.7797 40.5758C52.7906 38.89 53.7609 37.1611 54.6905 35.3893C55.4247 34.1666 56.108 32.7491 56.6575 31.2658L56.7155 31.0886C56.9055 30.1344 57.1233 29.3296 57.3889 28.5448L57.3484 28.6866C57.4328 28.4334 57.7931 28.2435 58.4293 28.117C59.0318 27.9955 59.7227 27.9271 60.429 27.9271H60.5202H60.515C61.6963 27.9271 62.3267 28.2225 62.4059 28.8131L62.1527 29.3168C61.8515 30.1673 61.5883 31.1898 61.4111 32.2404L61.396 32.3543C61.3166 33.2187 61.3628 34.0901 61.5327 34.9412L61.5225 34.8831V35.3867C61.8135 36.4903 62.2465 37.4599 62.8135 38.3381L62.7881 38.2976L63.1678 39.1835C65.4202 38.093 67.892 37.5302 70.3945 37.5383H70.4933H70.4883L70.4855 37.5459ZM16.2182 55.905C18.0458 54.021 19.0665 51.4981 19.0633 48.8732C19.0639 47.8457 18.9086 46.8241 18.6026 45.8434L18.6228 45.9142L16.5979 47.1799C14.5324 48.3568 12.7453 49.6706 11.1279 51.1641L11.1481 51.1463C9.90496 52.2864 9.01061 53.7556 8.56875 55.3835L8.55356 55.4469C8.17388 57.0078 8.36371 58.0203 9.12309 58.4844C9.58631 58.6971 10.1305 58.821 10.7001 58.821C11.3228 58.821 11.9125 58.6741 12.4314 58.4108L12.4087 58.421C13.8587 57.9004 15.1596 57.0332 16.1979 55.8948L16.2055 55.8874L16.2182 55.905ZM33.1699 44.2511C33.5919 43.1543 34.0559 41.8465 34.5622 40.3277C35.2372 38.3027 35.4694 37.1223 35.2583 36.7866C35.0473 36.4506 34.6466 36.4085 34.0559 36.6599C33.3741 36.9875 32.7717 37.4599 32.2917 38.0445L32.2839 38.0546C31.7388 38.7473 31.2463 39.4802 30.8107 40.2466L30.7652 40.3328C30.2298 41.2166 29.8112 42.1661 29.5199 43.1576L29.4972 43.2436C28.9075 44.873 28.6501 46.6038 28.7402 48.3341V48.3037C28.8246 49.9896 29.0945 50.8966 29.5502 51.0248C30.0057 51.1531 30.5334 50.5414 31.1323 49.1896C31.7119 48.1441 32.2282 46.9292 32.613 45.6561L32.6484 45.5194C32.9 44.9219 33.0721 44.4992 33.1649 44.2511H33.1699ZM47.2082 50.959C48.0804 50.5731 48.8335 49.9612 49.3894 49.1862C49.9454 48.4112 50.2838 47.5018 50.3698 46.5521L50.3722 46.5319V46.4053L48.98 48.1771L46.4515 50.9616C46.4321 50.9765 46.4162 50.9956 46.4053 51.0175C46.3943 51.0395 46.3885 51.0636 46.388 51.0881C46.388 51.1387 46.4134 51.1843 46.4487 51.2146C46.5297 51.2973 46.783 51.2129 47.2082 50.9616V50.959ZM58.0902 48.5543C59.0357 48.2887 59.8685 47.7218 60.4624 46.9395C61.0563 46.1575 61.3788 45.2028 61.3808 44.2208V44.1221V44.1271C61.3555 43.6209 61.2643 43.1451 61.1149 42.6944L61.125 42.7323C60.1405 43.6082 59.3329 44.6561 58.7483 45.8383L58.7202 45.8965C57.9593 47.4136 57.7468 48.2978 58.0824 48.5492L58.0902 48.5543Z" fill="#FF4F03"/>
</g>
</g>
<defs>
<clipPath id="clip0_1460_20">
<rect width="81" height="64.8" fill="white" transform="translate(0.792969 0.601562)"/>
</clipPath>
</defs>
</svg>
