<svg width="89" height="65" viewBox="0 0 89 65" fill="none" xmlns="http://www.w3.org/2000/svg">
<path d="M47.7443 0.312309C42.5505 1.25094 37.6905 3.83738 33.8943 7.67532L32.4551 9.15627H37.774H43.1137L44.6572 8.44708C47.3271 7.21643 48.5369 6.96613 52.1454 6.96613C54.8987 6.96613 55.6287 7.02871 57.0054 7.44588C60.301 8.3845 63.2629 10.22 65.6199 12.7648C68.8112 16.2064 70.5008 20.4615 70.5008 25.0921C70.5008 31.5582 67.4972 37.0648 61.9905 40.6733C57.0262 43.9272 50.435 44.4486 44.7824 42.0291L43.0303 41.2782L37.8365 41.3199L32.6428 41.3825L34.4783 43.1971C38.0243 46.7222 42.0708 48.8706 47.2228 49.997C48.4535 50.2473 49.8301 50.3516 52.354 50.3516C55.3576 50.3307 56.0668 50.2681 57.9857 49.7884C65.7033 47.8486 71.6897 42.9886 75.0062 35.9801C78.8024 27.9288 78.0515 18.3131 73.0038 10.8041C71.6688 8.82253 68.1855 5.44347 66.0579 4.04596C61.7611 1.25094 57.2974 -0.0422821 52.062 -0.000564575C50.5602 -0.000564575 48.6203 0.145443 47.7443 0.312309Z" fill="url(#paint0_linear_1516_120)"/>
<path d="M7.52987 10.8444C4.88086 11.3658 2.16927 13.4308 0.980344 15.8087C0.354592 17.081 0.312876 17.3313 0.312876 19.2711C0.312876 21.211 0.354592 21.4613 0.980344 22.7336C2.31528 25.4244 4.17168 26.5716 9.15683 27.8231C13.5579 28.9286 13.9751 29.2206 13.9751 31.3064C13.9751 32.3911 13.9125 32.5788 13.2868 33.2045C11.2218 35.2695 6.04893 34.5812 2.73245 31.807C1.73125 30.9518 1.02206 30.8684 0.417168 31.4733C0.0417168 31.8487 0 32.1616 0 34.31C0 35.6241 0.104292 36.8965 0.229442 37.1259C0.730043 38.0645 5.19374 39.5246 8.28078 39.7332C12.1813 39.9835 15.2683 39.0657 17.375 36.9799C19.878 34.5186 20.6915 30.4304 19.294 27.3433C18.1259 24.7986 16.2695 23.6305 11.347 22.3999C7.75932 21.4821 7.42558 21.357 6.77897 20.5852C6.00721 19.6675 6.02807 17.9988 6.84155 17.1853C7.67588 16.3301 8.59365 16.0172 10.3458 16.0172C12.3273 15.9964 14.1211 16.5804 15.8732 17.8111C17.3125 18.8123 18.0842 18.9791 18.6265 18.3742C18.9186 18.0614 18.9811 17.519 18.9811 15.4541C18.9811 13.0136 18.9603 12.9302 18.4388 12.513C16.7076 11.1572 10.6795 10.2186 7.52987 10.8444Z" fill="url(#paint1_linear_1516_120)"/>
<path d="M48.8703 10.8993C44.7404 11.9005 41.5699 15.1961 40.2141 19.8892C39.797 21.3493 39.7344 22.0168 39.7344 25.1038C39.7344 29.1921 40.0055 30.5061 41.3405 33.322C42.884 36.5342 45.6999 38.7661 49.1832 39.4961C52.1034 40.1219 55.691 39.7255 58.1315 38.4949C62.6786 36.1796 65.1816 30.7564 64.8061 23.9566C64.4307 17.0108 61.1142 12.3385 55.5867 10.9201C54.0849 10.5447 50.4139 10.5238 48.8703 10.8993ZM54.7733 16.3433C56.5254 17.0733 57.9229 18.9923 58.5069 21.4953C58.9032 23.2057 58.9032 27.2105 58.5069 28.9209C57.6517 32.5503 55.5242 34.4275 52.2494 34.4275C49.3084 34.4484 47.306 32.9257 46.2005 29.8178C45.6582 28.2326 45.4079 25.4167 45.679 23.3309C46.1796 19.2009 47.5771 17.0108 50.3096 16.1139C51.4151 15.7593 53.6469 15.8636 54.7733 16.3433Z" fill="url(#paint2_linear_1516_120)"/>
<path d="M21.4836 11.4482C21.0664 11.8654 21.0664 12.1365 21.0664 25.1104V38.3764L21.5879 38.877L22.0885 39.3984H30.2858C36.4599 39.3984 38.6083 39.3359 39.0046 39.1273C39.5052 38.877 39.5261 38.7727 39.5886 36.666C39.6304 34.8722 39.5886 34.4133 39.3175 34.1838C39.088 33.9961 37.5237 33.9127 32.9974 33.8918L27.011 33.871L26.9485 30.2625L26.9068 26.6748H32.3925C39.1923 26.6748 38.796 26.8417 38.796 23.9841C38.796 22.2737 38.7335 21.8774 38.4206 21.6062C38.0868 21.2934 37.3568 21.2516 32.4759 21.2516H26.9068V18.8529V16.4542H32.9348C38.1494 16.4542 39.0255 16.4125 39.2966 16.1205C39.5469 15.8702 39.6304 15.3279 39.6304 13.7635C39.6304 12.0531 39.5678 11.6568 39.2549 11.3856C38.9003 11.0728 37.9826 11.031 30.3901 11.031C22.1719 11.031 21.8799 11.0519 21.4836 11.4482Z" fill="url(#paint3_linear_1516_120)"/>
<path d="M72.5011 40.8374C71.1136 43.0031 69.5006 44.6805 67.4328 46.0835L66.4407 46.7719L73.5126 55.159C79.0582 61.7292 80.7319 63.6275 81.254 63.9347C81.8165 64.2587 82.1291 64.3324 83.2258 64.3812C84.3636 64.4318 84.613 64.3831 85.2315 64.0667C86.1026 63.6271 87.0819 62.6092 87.5076 61.6863C87.7501 61.1739 87.8399 60.6995 87.8797 59.8043C87.9923 57.5819 88.2238 57.936 80.1748 48.3543L73.0919 39.9069L72.5011 40.8374Z" fill="url(#paint4_linear_1516_120)"/>
<defs>
<linearGradient id="paint0_linear_1516_120" x1="54.9284" y1="50.3516" x2="54.9284" y2="-0.00154114" gradientUnits="userSpaceOnUse">
<stop offset="0.380208" stop-color="#FF4F03"/>
<stop offset="1" stop-color="#FF4F03" stop-opacity="0"/>
</linearGradient>
<linearGradient id="paint1_linear_1516_120" x1="9.98698" y1="39.7734" x2="9.98698" y2="10.6463" gradientUnits="userSpaceOnUse">
<stop offset="0.380208" stop-color="#FF4F03"/>
<stop offset="1" stop-color="#FF4F03" stop-opacity="0"/>
</linearGradient>
<linearGradient id="paint2_linear_1516_120" x1="52.2887" y1="39.7891" x2="52.2887" y2="10.6279" gradientUnits="userSpaceOnUse">
<stop offset="0.380208" stop-color="#FF4F03"/>
<stop offset="1" stop-color="#FF4F03" stop-opacity="0"/>
</linearGradient>
<linearGradient id="paint3_linear_1516_120" x1="30.3484" y1="39.3984" x2="30.3484" y2="11.031" gradientUnits="userSpaceOnUse">
<stop offset="0.380208" stop-color="#FF4F03"/>
<stop offset="1" stop-color="#FF4F03" stop-opacity="0"/>
</linearGradient>
<linearGradient id="paint4_linear_1516_120" x1="76.6815" y1="64.0902" x2="77.7476" y2="40.1139" gradientUnits="userSpaceOnUse">
<stop offset="0.380208" stop-color="#FF4F03"/>
<stop offset="1" stop-color="#FF4F03" stop-opacity="0"/>
</linearGradient>
</defs>
</svg>
