<svg width="60" height="60" viewBox="0 0 60 60" fill="none" xmlns="http://www.w3.org/2000/svg">
<path d="M0.19334 22.0447C0.386681 43.1832 0.451128 44.2788 1.80451 47.179C3.73792 51.4324 8.50698 56.266 12.5027 58.0705C15.725 59.5527 16.4984 59.6172 30.0322 59.6172H44.2105L48.5285 57.4904C53.5553 55.0415 56.8421 51.4324 58.7755 46.4056C59.8067 43.6344 60 41.4432 60 30.6161V18.049H53.8775H47.7551V29.1338C47.7551 41.7654 47.2395 43.7633 43.2438 46.0834C41.246 47.2434 39.8926 47.3723 30.0322 47.3723C17.8518 47.3723 16.2406 46.9212 13.8561 42.9255C12.7605 41.1209 12.6316 39.1875 12.4382 20.4335L12.2449 0.00387573H6.12245H0L0.19334 22.0447Z" fill="url(#paint0_linear_1516_86)"/>
<path d="M47.7549 5.48296V10.9609H53.8773H59.9998V5.48296V0.00497818H53.8773H47.7549V5.48296Z" fill="#FF4F03"/>
<defs>
<linearGradient id="paint0_linear_1516_86" x1="30" y1="59.6172" x2="30" y2="0.00387955" gradientUnits="userSpaceOnUse">
<stop stop-color="#FF4F03"/>
<stop offset="1" stop-color="#FF4F03" stop-opacity="0"/>
</linearGradient>
</defs>
</svg>
