<svg width="82" height="82" viewBox="0 0 82 82" fill="none" xmlns="http://www.w3.org/2000/svg">
<g clip-path="url(#clip0_1445_72)">
<path d="M6.5498 41.1009C6.5498 54.8534 14.542 66.7383 26.1314 72.3704L9.55789 26.9609C7.63007 31.282 6.5498 36.0638 6.5498 41.1009Z" fill="#FF4F03"/>
<path d="M64.7494 39.3491C64.7494 35.0551 63.207 32.0814 61.8841 29.7669C60.1229 26.9049 58.4721 24.4812 58.4721 21.6193C58.4721 18.4254 60.8944 15.4524 64.3064 15.4524C64.4605 15.4524 64.6066 15.4715 64.7566 15.4801C58.5752 9.81701 50.3397 6.35938 41.2943 6.35938C29.1562 6.35938 18.4772 12.5871 12.2646 22.0199C13.0798 22.0444 13.848 22.0616 14.5005 22.0616C18.1347 22.0616 23.7601 21.6206 23.7601 21.6206C25.6331 21.5102 25.8539 24.2611 23.9829 24.4826C23.9829 24.4826 22.1007 24.704 20.0063 24.8138L32.6588 62.4478L40.2623 39.644L34.8491 24.8125C32.9781 24.7027 31.2056 24.4812 31.2056 24.4812C29.3334 24.3715 29.5528 21.5089 31.4251 21.6193C31.4251 21.6193 37.163 22.0602 40.577 22.0602C44.2105 22.0602 49.8366 21.6193 49.8366 21.6193C51.7108 21.5089 51.931 24.2598 50.0594 24.4812C50.0594 24.4812 48.1732 24.7027 46.0827 24.8125L58.6387 62.1616L62.1042 50.5808C63.6063 45.7751 64.7494 42.3235 64.7494 39.3491Z" fill="#FF4F03"/>
<path d="M41.904 44.1406L31.4795 74.4323C34.592 75.3473 37.8837 75.8478 41.2944 75.8478C45.3405 75.8478 49.2206 75.1483 52.8322 73.8783C52.739 73.7296 52.6544 73.5716 52.585 73.3997L41.904 44.1406Z" fill="#FF4F03"/>
<path d="M71.7814 24.4297C71.9308 25.5364 72.0155 26.7244 72.0155 28.0024C72.0155 31.5281 71.357 35.4915 69.3736 40.4472L58.7607 71.1316C69.09 65.1082 76.0377 53.9175 76.0377 41.0997C76.0384 35.0591 74.4953 29.3788 71.7814 24.4297Z" fill="#FF4F03"/>
<path d="M41.2943 0.601562C18.9624 0.601562 0.792969 18.7697 0.792969 41.1016C0.792969 63.4361 18.9624 81.6036 41.2943 81.6036C63.6255 81.6036 81.7976 63.4361 81.7976 41.1016C81.7969 18.7697 63.6255 0.601562 41.2943 0.601562ZM41.2943 79.7471C19.9865 79.7471 2.65005 62.4107 2.65005 41.1016C2.65005 19.7938 19.9858 2.45864 41.2943 2.45864C62.6014 2.45864 79.9366 19.7938 79.9366 41.1016C79.9366 62.4107 62.6014 79.7471 41.2943 79.7471Z" fill="#FF4F03"/>
</g>
<defs>
<clipPath id="clip0_1445_72">
<rect x="0.792969" y="0.601562" width="81" height="81.002" rx="25" fill="white"/>
</clipPath>
</defs>
</svg>
